<?xml version="1.0" encoding="UTF-8"?>
<!DOCTYPE svg PUBLIC "-//W3C//DTD SVG 1.1//EN" "http://www.w3.org/Graphics/SVG/1.1/DTD/svg11.dtd">
<!-- Creator: CorelDRAW -->
<svg xmlns="http://www.w3.org/2000/svg" xml:space="preserve" width="12.7923mm" height="11.7711mm" version="1.1" style="shape-rendering:geometricPrecision; text-rendering:geometricPrecision; image-rendering:optimizeQuality; fill-rule:evenodd; clip-rule:evenodd"
viewBox="0 0 4.26 3.92"
 xmlns:xlink="http://www.w3.org/1999/xlink"
 xmlns:xodm="http://www.corel.com/coreldraw/odm/2003">
 <defs>
  <style type="text/css">
   <![CDATA[
    .fil0 {fill:url(#id0)}
   ]]>
  </style>
  <linearGradient id="id0" gradientUnits="userSpaceOnUse" x1="3.18" y1="3.78" x2="1.85" y2="0.15">
   <stop offset="0" style="stop-opacity:1; stop-color:#0048FF"/>
   <stop offset="1" style="stop-opacity:1; stop-color:#6BB0FF"/>
  </linearGradient>
 </defs>
 <g id="Layer_x0020_1">
  <metadata id="CorelCorpID_0Corel-Layer"/>
  <path class="fil0" d="M1.18 3.92l-0.2 0 -0.2 0 -0.59 0c-0.1,0 -0.18,-0.09 -0.18,-0.19l0 -0.68c0,-0.11 0.08,-0.19 0.18,-0.19l0.59 0 0.2 0 1.16 0c0,-0.59 0.43,-1.06 0.96,-1.06l0.09 0 0 -0 0.88 0c0.1,0 0.18,0.09 0.18,0.19l0 0.68c0,0.11 -0.08,0.19 -0.18,0.19l-0.02 0 -0.04 0 -0.04 0 -0.04 0 -1.8 0c0,0.59 -0.43,1.06 -0.96,1.06zm2.1 -3.92l0.79 0c0.1,0 0.18,0.09 0.18,0.19l0 0.68c0,0.11 -0.08,0.19 -0.18,0.19l-0.02 0 -0.04 0 -0.04 0 -0.04 0 -1.8 0c0,0.59 -0.43,1.06 -0.96,1.06l-0.2 0 -0.2 0 -0.59 0c-0.1,0 -0.18,-0.09 -0.18,-0.19l0 -0.68c0,-0.11 0.08,-0.19 0.18,-0.19l0.59 0 0.2 0 1.16 0c0,-0.59 0.43,-1.06 0.96,-1.06l0.09 0 0.09 0zm0 2.86l0.11 0 0.1 0 0.09 0 0.09 0 0.08 0 0.07 0 0.07 0 0.06 0 0.05 0 0.05 0 0.02 0m-0.79 -1.8l0.11 0 0.1 0 0.09 0 0.09 0 0.08 0 0.07 0 0.07 0 0.06 0 0.05 0 0.05 0 0.02 0"/>
 </g>
</svg>
