<?xml version="1.0" standalone="no"?>
<!DOCTYPE svg PUBLIC "-//W3C//DTD SVG 20010904//EN"
 "http://www.w3.org/TR/2001/REC-SVG-20010904/DTD/svg10.dtd">
<svg version="1.0" xmlns="http://www.w3.org/2000/svg"
 width="805.000000pt" height="250.000000pt" viewBox="0 0 805.000000 250.000000"
 preserveAspectRatio="xMidYMid meet">

<g transform="translate(0.000000,250.000000) scale(0.100000,-0.100000)"
fill="#000000" stroke="none">
<path d="M2199 2362 c-11 -2 -14 -36 -14 -192 0 -119 4 -190 10 -191 47 -4
5320 -3 5332 2 15 5 17 27 18 192 0 159 -2 187 -15 188 -39 2 -5318 4 -5331 1z"/>
<path d="M6614 1842 c-17 -11 -35 -76 -28 -98 4 -14 4 -16 -4 -5 -19 27 -38 3
-63 -82 -22 -71 -24 -87 -12 -91 8 -3 13 -16 11 -28 -4 -28 21 -35 62 -16 22
9 33 23 41 51 10 39 36 47 31 10 -2 -11 4 -23 12 -26 9 -4 12 -14 9 -26 -3
-12 -1 -21 6 -21 6 0 11 -11 11 -24 0 -14 5 -28 10 -31 6 -4 8 -16 4 -27 -5
-17 -3 -19 18 -13 12 4 36 14 51 22 23 11 26 17 17 28 -7 8 -9 19 -5 26 11 16
-16 30 -32 17 -8 -6 -16 -8 -20 -4 -3 3 -1 6 6 6 7 0 9 5 5 12 -4 6 -3 8 3 5
15 -9 26 24 13 37 -8 8 -13 7 -19 -3 -11 -17 -32 -6 -25 13 3 7 -2 19 -10 26
-9 7 -13 16 -10 21 7 12 -32 52 -55 56 -16 2 -23 -8 -35 -51 -9 -30 -16 -59
-16 -65 0 -11 -22 -15 -32 -6 -5 6 31 144 57 214 17 48 17 85 -1 73z"/>
<path d="M6700 1830 c-13 -9 -13 -11 0 -20 15 -10 25 0 18 20 -2 6 -8 6 -18 0z"/>
<path d="M7041 1794 c-62 -13 -115 -25 -116 -26 -2 -2 -6 -24 -10 -50 -6 -41
-5 -48 10 -48 9 0 19 9 22 20 3 12 17 23 32 26 59 12 117 25 134 30 11 4 17 0
17 -11 0 -10 7 -15 18 -13 13 2 18 15 20 51 2 26 -1 47 -5 46 -4 0 -59 -11
-122 -25z"/>
<path d="M6706 1705 c6 -15 101 -61 110 -53 6 7 -82 61 -103 64 -6 1 -9 -4 -7
-11z"/>
<path d="M6660 1701 c0 -5 5 -13 10 -16 6 -3 10 -2 10 4 0 5 -4 13 -10 16 -5
3 -10 2 -10 -4z"/>
<path d="M7152 1680 c-1 -19 -5 -53 -8 -75 -4 -32 -3 -36 6 -22 6 9 9 43 7 75
-2 32 -4 41 -5 22z"/>
<path d="M7425 1679 l-40 -30 4 -67 c4 -84 52 -192 77 -172 7 7 15 10 15 6 1
-3 2 -9 3 -13 3 -20 44 -50 57 -42 11 7 9 10 -9 15 -17 5 -22 13 -20 33 l2 26
90 0 91 -1 10 -94 c6 -61 13 -90 19 -81 6 10 13 3 26 -25 24 -52 24 -40 1 29
-11 31 -23 77 -26 102 -6 39 -5 44 9 39 9 -3 28 -3 44 2 24 7 22 9 -23 14 -38
4 -50 9 -49 21 1 13 -16 17 -99 23 -55 3 -103 9 -106 12 -3 3 -7 42 -8 87 -3
95 -11 147 -21 147 -4 0 -25 -14 -47 -31z m61 -216 c0 -1 -15 -5 -31 -9 -27
-7 -29 -6 -16 9 8 10 11 27 7 41 -3 14 -1 28 4 31 6 4 7 11 4 17 -4 6 0 14 7
19 11 7 15 -4 21 -49 3 -31 5 -58 4 -59z"/>
<path d="M7108 1693 c7 -3 16 -2 19 1 4 3 -2 6 -13 5 -11 0 -14 -3 -6 -6z"/>
<path d="M6835 1680 c-3 -5 1 -10 10 -10 9 0 13 5 10 10 -3 6 -8 10 -10 10 -2
0 -7 -4 -10 -10z"/>
<path d="M7060 1661 c0 -12 9 -20 28 -24 31 -6 53 8 51 32 -1 14 -2 14 -6 -1
-6 -25 -33 -31 -33 -8 0 13 -7 20 -20 20 -13 0 -20 -7 -20 -19z"/>
<path d="M6935 1657 c-30 -18 -27 -53 4 -54 15 0 18 1 9 4 -22 6 -24 39 -2 47
23 9 24 8 24 -14 0 -12 7 -20 18 -20 15 -1 14 -3 -4 -18 -12 -10 -25 -33 -29
-50 -5 -26 -12 -32 -31 -32 -15 0 -23 -4 -19 -10 4 -6 1 -17 -5 -25 -7 -8 -9
-24 -5 -36 4 -13 7 -42 7 -66 -2 -59 21 -53 28 7 l5 44 80 17 c150 32 175 40
175 55 0 11 6 13 20 9 34 -11 22 3 -20 25 -26 13 -49 18 -65 14 -23 -6 -25 -4
-25 31 0 32 -2 36 -20 30 -15 -5 -20 -2 -20 11 0 13 -6 15 -30 11 -23 -5 -28
-3 -23 8 3 9 -1 15 -10 15 -9 0 -21 2 -29 5 -7 2 -22 -1 -33 -8z m125 -67 c0
-5 -3 -10 -7 -10 -5 0 -18 -3 -30 -6 -13 -4 -23 -2 -23 4 0 9 9 13 53 21 4 0
7 -3 7 -9z"/>
<path d="M6710 1651 c0 -5 5 -13 10 -16 6 -3 10 -2 10 4 0 5 -4 13 -10 16 -5
3 -10 2 -10 -4z"/>
<path d="M6725 1610 c-7 -12 2 -30 16 -30 12 0 12 27 0 35 -5 3 -12 1 -16 -5z"/>
<path d="M7552 1579 c2 -7 10 -15 17 -17 8 -3 12 1 9 9 -2 7 -10 15 -17 17 -8
3 -12 -1 -9 -9z"/>
<path d="M7640 1576 c0 -9 5 -16 10 -16 6 0 10 4 10 9 0 6 -4 13 -10 16 -5 3
-10 -1 -10 -9z"/>
<path d="M1725 1548 c-2 -7 -29 -139 -60 -293 -31 -154 -59 -290 -62 -302 -5
-22 -2 -23 51 -23 55 0 57 1 63 30 5 30 6 30 69 30 61 0 63 -1 66 -27 3 -27 6
-28 61 -31 56 -3 57 -2 52 20 -3 13 -30 145 -60 293 -30 149 -57 280 -60 293
-5 19 -12 22 -61 22 -35 0 -56 -5 -59 -12z m89 -402 l7 -36 -37 0 c-32 0 -36
2 -31 23 3 12 11 49 18 82 l12 60 12 -46 c7 -26 15 -63 19 -83z"/>
<path d="M5310 1552 c0 -4 -27 -140 -60 -300 -33 -161 -60 -299 -60 -307 0
-11 13 -15 54 -15 51 0 54 1 60 30 5 29 7 30 65 30 58 0 60 -1 66 -30 6 -29 9
-30 61 -30 30 0 54 4 54 8 0 18 -120 604 -126 613 -6 11 -114 12 -114 1z m78
-356 c16 -86 16 -86 -22 -86 l-33 0 15 75 c8 41 18 75 22 75 3 0 12 -29 18
-64z"/>
<path d="M7875 1551 c-3 -5 -1 -12 5 -16 17 -11 11 -66 -19 -160 -21 -68 -30
-85 -35 -69 -3 12 -2 34 4 49 6 15 8 31 4 34 -4 3 -9 0 -11 -7 -4 -10 -9 -8
-20 5 -13 16 -13 13 -7 -32 4 -27 8 -65 9 -82 1 -18 9 -41 18 -51 9 -10 17
-24 17 -30 0 -23 30 -12 31 11 1 21 1 21 9 -3 l8 -25 1 28 c1 18 -4 27 -14 27
-8 0 -16 8 -16 18 -3 44 1 77 10 80 5 2 7 10 4 19 -4 9 -2 14 3 10 6 -3 9 7 8
24 -1 16 2 29 8 29 5 0 7 4 4 9 -4 5 -1 22 4 37 18 47 -4 129 -25 95z"/>
<path d="M250 1240 l0 -310 50 0 50 0 0 310 0 310 -50 0 -50 0 0 -310z"/>
<path d="M550 1240 l0 -310 165 0 166 0 -3 58 -3 57 -107 3 -108 3 0 249 0
250 -55 0 -55 0 0 -310z"/>
<path d="M1070 1240 l0 -310 55 0 55 0 0 125 0 125 55 0 55 0 0 -125 0 -125
55 0 55 0 0 310 0 310 -55 0 -55 0 0 -125 0 -125 -55 0 -55 0 0 125 0 125 -55
0 -55 0 0 -310z"/>
<path d="M2160 1240 l0 -310 55 0 55 0 0 188 c1 211 0 210 67 78 l35 -69 46
87 47 86 3 -185 2 -185 55 0 55 0 0 310 0 310 -55 0 -54 0 -49 -91 -50 -91
-48 91 -49 91 -57 0 -58 0 0 -310z"/>
<path d="M3148 1516 c-27 -34 -28 -39 -28 -150 0 -115 0 -115 31 -151 31 -35
32 -35 110 -35 l79 0 0 -65 0 -65 -60 0 -60 0 0 40 0 40 -50 0 -50 0 0 -68 c0
-64 2 -70 33 -100 32 -32 34 -32 130 -32 97 0 97 0 127 33 29 32 29 33 30 153
l0 120 -33 32 c-31 30 -37 32 -110 32 l-77 0 0 65 0 65 60 0 60 0 0 -40 0 -40
50 0 50 0 0 66 c0 55 -4 71 -26 100 l-26 34 -107 0 -106 0 -27 -34z"/>
<path d="M3640 1490 l0 -60 55 0 55 0 0 -250 0 -250 55 0 55 0 0 250 0 250 55
0 55 0 0 60 0 60 -165 0 -165 0 0 -60z"/>
<path d="M4170 1240 l0 -310 50 0 50 0 0 125 c0 117 1 125 19 125 21 0 32 -29
67 -177 l18 -73 57 0 56 0 -30 125 -31 125 32 33 32 33 0 118 c0 111 -1 119
-26 152 l-26 34 -134 0 -134 0 0 -310z m218 128 l-3 -63 -55 0 -55 0 -3 63 -3
62 61 0 61 0 -3 -62z"/>
<path d="M4690 1240 l0 -310 150 0 151 0 -3 58 -3 57 -92 3 -93 3 0 64 0 65
50 0 50 0 0 60 0 60 -50 0 -50 0 0 65 0 64 93 3 92 3 3 58 3 57 -151 0 -150 0
0 -310z"/>
<path d="M5750 1240 l0 -310 55 0 55 0 2 188 3 187 46 -89 46 -89 49 92 49 92
3 -191 2 -190 55 0 55 0 0 310 0 310 -57 0 -58 0 -49 -91 -48 -91 -50 91 -49
91 -54 0 -55 0 0 -310z"/>
<path d="M7851 1459 c-7 -22 -11 -43 -8 -45 2 -2 9 14 16 37 7 22 11 43 8 45
-2 2 -9 -14 -16 -37z"/>
<path d="M7273 1441 c-28 -4 -55 -9 -58 -13 -9 -8 33 -88 49 -94 8 -3 37 -1
65 4 l51 9 31 -53 c53 -93 43 -59 -14 48 -30 56 -58 103 -63 104 -5 0 -32 -2
-61 -5z"/>
<path d="M6732 1393 c9 -2 19 -12 21 -21 3 -12 5 -10 6 6 1 17 -4 22 -21 21
-16 -1 -18 -3 -6 -6z"/>
<path d="M6645 1380 c-14 -7 -8 -8 20 -3 22 3 42 7 44 9 9 8 -45 2 -64 -6z"/>
<path d="M6762 1335 c0 -11 3 -29 8 -40 11 -25 11 1 0 35 -6 20 -8 21 -8 5z"/>
<path d="M7550 1334 c0 -11 5 -14 16 -10 9 3 22 6 30 6 8 0 14 5 14 10 0 6
-13 10 -30 10 -21 0 -30 -5 -30 -16z"/>
<path d="M6830 1290 c-14 -10 -39 -20 -55 -22 l-30 -3 32 -18 c47 -25 61 -22
72 20 6 20 9 38 8 39 -1 1 -13 -6 -27 -16z"/>
<path d="M7287 1263 c-4 -3 -7 -11 -7 -17 0 -6 4 -5 9 2 6 10 10 9 14 -7 3
-12 2 -19 -3 -16 -9 6 -18 -25 -13 -43 3 -6 10 -9 15 -6 7 4 8 2 4 -4 -4 -7
-2 -20 3 -29 9 -15 10 -13 11 14 0 17 4 34 9 38 6 3 1 21 -10 40 -23 38 -23
38 -32 28z"/>
<path d="M6453 1193 c23 -4 27 -9 27 -39 0 -24 4 -34 16 -34 12 0 14 9 12 38
-3 36 -4 37 -43 38 -24 1 -29 0 -12 -3z"/>
<path d="M7680 1186 c0 -11 -20 -15 -87 -18 -49 -2 -89 0 -91 5 -7 14 -62 8
-62 -8 0 -8 3 -15 8 -15 4 0 7 -29 7 -64 0 -36 3 -62 8 -59 5 3 6 -4 2 -16 -4
-12 3 -79 14 -149 11 -70 22 -138 23 -152 2 -14 9 -25 16 -24 6 1 36 2 66 3
52 1 55 2 65 34 8 22 8 49 2 82 -8 44 -6 56 25 126 37 84 41 111 22 152 l-13
26 -90 -6 c-49 -3 -95 -10 -101 -14 -13 -11 -24 -1 -24 21 0 15 17 18 121 23
67 3 123 7 124 9 2 2 1 15 -2 31 -5 28 -33 39 -33 13z"/>
<path d="M6570 1181 c20 -5 26 -14 28 -45 3 -35 5 -37 28 -32 l25 7 -3 -112
-3 -112 -45 -13 c-25 -8 -45 -14 -45 -14 0 0 -1 21 -3 48 -2 26 -9 52 -17 58
-8 6 -15 18 -15 27 0 21 -11 27 -71 36 -42 7 -52 6 -57 -8 -3 -9 -10 -19 -16
-24 -6 -4 -2 -6 9 -5 11 1 39 -1 63 -6 41 -8 42 -9 42 -47 0 -34 -4 -41 -27
-50 -16 -6 -48 -8 -73 -4 -50 8 -49 8 -52 -2 -2 -4 17 -15 42 -24 40 -15 49
-15 79 -3 48 20 60 18 72 -13 6 -16 13 -23 15 -17 3 6 18 9 34 6 17 -2 27 -9
23 -15 -3 -5 2 -16 12 -23 16 -12 16 -16 2 -57 -14 -43 -14 -44 4 -40 11 3 17
8 15 11 -10 9 28 62 45 62 10 0 20 13 25 32 7 22 16 33 28 33 10 0 22 10 27
23 8 21 6 22 -35 22 -41 0 -43 -1 -55 -40 -6 -22 -16 -40 -21 -40 -13 0 -13 4
5 47 11 25 15 72 15 159 0 116 -1 124 -19 124 -12 0 -23 9 -27 23 -8 28 -22
37 -54 36 l-25 -1 25 -7z"/>
<path d="M7085 1174 c-11 -2 -50 -6 -86 -9 -66 -6 -67 -7 -72 -38 -3 -22 0
-36 10 -44 10 -8 13 -20 10 -35 -6 -20 15 -58 32 -58 4 0 20 25 36 55 26 48
34 55 60 54 23 0 26 -2 11 -8 -15 -6 -11 -10 22 -23 l40 -16 12 29 c7 16 16
29 21 29 4 0 -9 -35 -30 -77 -85 -173 -93 -197 -80 -229 6 -16 13 -23 16 -16
6 17 23 15 23 -2 0 -8 4 -18 10 -21 5 -3 7 0 4 8 -3 8 6 37 21 64 14 26 23 39
19 28 -15 -46 -11 -50 45 -53 47 -3 53 -1 42 12 -10 11 -10 20 -1 36 8 16 9
25 1 33 -7 7 -7 16 0 29 9 16 6 25 -11 43 -18 19 -19 26 -9 49 10 22 9 29 -5
45 -16 18 -16 19 1 17 28 -2 31 69 4 84 -16 8 -21 8 -21 -1 0 -14 -30 -38 -47
-39 -7 0 -13 7 -13 16 0 10 -6 14 -15 10 -10 -4 -15 1 -15 14 0 11 -3 19 -7
19 -5 -1 -17 -3 -28 -5z"/>
<path d="M6521 1034 c0 -11 3 -14 6 -6 3 7 2 16 -1 19 -3 4 -6 -2 -5 -13z"/>
<path d="M6365 967 c-10 -8 -15 -19 -11 -25 12 -19 30 -13 43 13 13 29 -1 34
-32 12z"/>
<path d="M7040 970 l-35 -7 32 -2 c17 0 35 4 38 9 3 6 5 9 3 9 -2 -1 -19 -5
-38 -9z"/>
<path d="M6802 843 c12 -32 31 -67 43 -78 11 -11 27 -46 34 -78 8 -31 19 -61
25 -66 15 -11 156 -24 156 -14 -1 4 -9 42 -19 83 l-18 75 -79 5 c-43 3 -79 10
-79 15 -1 6 -7 30 -14 54 -10 36 -10 45 1 52 8 6 -2 9 -29 9 l-42 0 21 -57z"/>
<path d="M7136 805 c-9 -26 -7 -32 5 -12 6 10 9 21 6 23 -2 3 -7 -2 -11 -11z"/>
<path d="M6660 730 c0 -5 9 -10 21 -10 11 0 17 5 14 10 -3 6 -13 10 -21 10 -8
0 -14 -4 -14 -10z"/>
<path d="M6514 661 c3 -5 18 -11 33 -14 26 -5 26 -4 8 9 -21 15 -49 19 -41 5z"/>
<path d="M129 562 c-11 -2 -14 -36 -14 -192 0 -119 4 -190 10 -191 47 -4 5320
-3 5332 2 15 5 17 27 18 192 0 159 -2 187 -15 188 -39 2 -5318 4 -5331 1z"/>
</g>
</svg>
